# xmcd CD database file
#
# Track frame offsets:
#	150
#	43427
#	60606
#	82285
#	106064
#	132941
#	154994
#	186432
#	211534
#	236138
#	251514
#	273285
#	296645
#	326651
#
# Disc length: 4790 seconds
#
# Revision: 0
# Processed by: cddbd v1.5.2PL0 Copyright (c) Steve Scherf et al.
# Submitted via: CDex 1.51
#
DISCID=d512b40e
DTITLE=Buddha Bar XIV - CD2-Bhangra
DYEAR=2012
DGENRE=New Age
TTITLE0=22ROCKETS - Umma
TTITLE1=Rosa Lux - Min Klub Forst feat. Alberte and Josefine Winding
TTITLE2=Nora En Pure - Saltwater
TTITLE3=Flo Mrzdk and Juliet Sikora - Shanti
TTITLE4=Nacho Sotomayor - Return To Mykonos (PrOmid Remix)
TTITLE5=Mikael Simpson - Inden Du Falder I Sovn (Lulu Rouge Remix) 
TTITLE6=Sugar House feat. Marieke Meije-Desire 
TTITLE7=Vinayak A - Losing Myself feat. Dhrithi (Alexey Sonar Remix) 
TTITLE8=Denis Dallan - Liberta
TTITLE9=Consoul Trainin and Pink Noisy - Litanie Des Saints
TTITLE10=Rico Bernasconi vs. Sasha Dith - Bollywood (Saxo.Club Mix)
TTITLE11=Alex Barattini - Let Me Kiss You
TTITLE12=Sezer Uysal Featuring Chinar- Baku (Dinka Remix) 
TTITLE13=Gorins feat. Shena - I Grieve For Spring
EXTD=YEAR: 2012
EXTT0=
EXTT1=
EXTT2=
EXTT3=
EXTT4=
EXTT5=
EXTT6=
EXTT7=
EXTT8=
EXTT9=
EXTT10=
EXTT11=
EXTT12=
EXTT13=
PLAYORDER=
